<?xml version="1.0" encoding="utf-8"?>
<svg viewBox="40.861 60.017 375 375" xmlns="http://www.w3.org/2000/svg">
  <path d="M 415.861 83.455 L 415.861 411.58 C 415.861 424.568 408.024 435.017 398.283 435.017 L 392.424 435.017 L 392.424 415.486 C 392.424 409.041 388.468 403.766 383.635 403.766 L 354.338 403.766 C 349.504 403.766 345.549 409.041 345.549 415.486 L 345.549 435.017 L 111.174 435.017 L 111.174 415.486 C 111.174 409.041 107.218 403.766 102.385 403.766 L 73.088 403.766 C 68.254 403.766 64.299 409.041 64.299 415.486 L 64.299 435.017 L 58.439 435.017 C 48.698 435.017 40.861 424.568 40.861 411.58 L 40.861 83.455 C 40.861 70.466 48.698 60.017 58.439 60.017 L 64.299 60.017 L 64.299 79.548 C 64.299 85.993 68.254 91.266 73.088 91.266 L 102.385 91.266 C 107.218 91.266 111.174 85.993 111.174 79.548 L 111.174 60.017 L 345.549 60.017 L 345.549 79.548 C 345.549 85.993 349.504 91.266 354.338 91.266 L 383.635 91.266 C 388.468 91.266 392.424 85.993 392.424 79.548 L 392.424 60.017 L 398.283 60.017 C 408.024 60.017 415.861 70.466 415.861 83.455 Z M 111.174 321.736 C 111.174 315.291 107.218 310.018 102.385 310.018 L 73.088 310.018 C 68.254 310.018 64.299 315.291 64.299 321.736 L 64.299 360.798 C 64.299 367.243 68.254 372.518 73.088 372.518 L 102.385 372.518 C 107.218 372.518 111.174 367.243 111.174 360.798 Z M 111.174 227.984 C 111.174 221.539 107.218 216.266 102.385 216.266 L 73.088 216.266 C 68.254 216.266 64.299 221.539 64.299 227.984 L 64.299 267.048 C 64.299 273.493 68.254 278.768 73.088 278.768 L 102.385 278.768 C 107.218 278.768 111.174 273.493 111.174 267.048 Z M 111.174 134.236 C 111.174 127.789 107.218 122.516 102.385 122.516 L 73.088 122.516 C 68.254 122.516 64.299 127.789 64.299 134.236 L 64.299 173.298 C 64.299 179.743 68.254 185.016 73.088 185.016 L 102.385 185.016 C 107.218 185.016 111.174 179.743 111.174 173.298 Z M 392.424 321.736 C 392.424 315.291 388.468 310.018 383.635 310.018 L 354.338 310.018 C 349.504 310.018 345.549 315.291 345.549 321.736 L 345.549 360.798 C 345.549 367.243 349.504 372.518 354.338 372.518 L 383.635 372.518 C 388.468 372.518 392.424 367.243 392.424 360.798 Z M 392.424 227.984 C 392.424 221.539 388.468 216.266 383.635 216.266 L 354.338 216.266 C 349.504 216.266 345.549 221.539 345.549 227.984 L 345.549 267.048 C 345.549 273.493 349.504 278.768 354.338 278.768 L 383.635 278.768 C 388.468 278.768 392.424 273.493 392.424 267.048 Z M 392.424 134.236 C 392.424 127.789 388.468 122.516 383.635 122.516 L 354.338 122.516 C 349.504 122.516 345.549 127.789 345.549 134.236 L 345.549 173.298 C 345.549 179.743 349.504 185.016 354.338 185.016 L 383.635 185.016 C 388.468 185.016 392.424 179.743 392.424 173.298 Z M 299.648 282.962 C 299.374 271.648 295.016 273.6 284.033 273.297 C 267.764 272.848 261.983 273.915 261.983 273.915 L 228.749 336.872 L 195.685 274.535 C 195.685 274.535 192.009 273.93 174.287 274.23 C 162.297 274.433 159.197 272.357 158.401 283.224 C 157.998 288.74 157.394 356.613 157.206 378.371 C 164.056 378.896 173.704 379.295 184.863 379.571 L 185.471 319.88 L 218.73 380.024 C 225.403 380.05 232.162 380.044 238.827 380.006 L 272.026 315.535 L 272.026 379.511 C 283.124 379.224 292.716 378.821 299.534 378.305 C 299.256 356.898 299.759 287.539 299.648 282.962 Z M 299.692 118.977 C 299.418 107.663 295.06 109.615 284.077 109.312 C 267.808 108.863 262.027 109.93 262.027 109.93 L 228.793 172.887 L 195.729 110.55 C 195.729 110.55 192.053 109.945 174.331 110.245 C 162.341 110.448 159.241 108.372 158.445 119.239 C 158.043 124.745 157.44 192.394 157.251 214.273 C 164.108 214.793 173.754 215.194 184.908 215.476 L 185.515 155.895 L 218.726 215.952 C 225.427 215.984 232.215 215.984 238.907 215.95 L 272.07 151.55 L 272.07 215.479 C 283.173 215.198 292.766 214.797 299.578 214.276 C 299.3 192.818 299.803 123.551 299.692 118.977 Z" style="fill: rgb(204, 51, 51);"/>
</svg>