<?xml version="1.0" encoding="utf-8"?>
<svg viewBox="39.861 60.017 375 375" xmlns="http://www.w3.org/2000/svg">
  <path d="M 414.861 83.455 L 414.861 411.58 C 414.861 424.568 407.024 435.017 397.283 435.017 L 391.424 435.017 L 391.424 415.486 C 391.424 409.041 387.468 403.766 382.635 403.766 L 353.338 403.766 C 348.504 403.766 344.549 409.041 344.549 415.486 L 344.549 435.017 L 110.174 435.017 L 110.174 415.486 C 110.174 409.041 106.218 403.766 101.385 403.766 L 72.088 403.766 C 67.254 403.766 63.299 409.041 63.299 415.486 L 63.299 435.017 L 57.439 435.017 C 47.698 435.017 39.861 424.568 39.861 411.58 L 39.861 83.455 C 39.861 70.466 47.698 60.017 57.439 60.017 L 63.299 60.017 L 63.299 79.548 C 63.299 85.993 67.254 91.266 72.088 91.266 L 101.385 91.266 C 106.218 91.266 110.174 85.993 110.174 79.548 L 110.174 60.017 L 344.549 60.017 L 344.549 79.548 C 344.549 85.993 348.504 91.266 353.338 91.266 L 382.635 91.266 C 387.468 91.266 391.424 85.993 391.424 79.548 L 391.424 60.017 L 397.283 60.017 C 407.024 60.017 414.861 70.466 414.861 83.455 Z M 110.174 321.736 C 110.174 315.291 106.218 310.018 101.385 310.018 L 72.088 310.018 C 67.254 310.018 63.299 315.291 63.299 321.736 L 63.299 360.798 C 63.299 367.243 67.254 372.518 72.088 372.518 L 101.385 372.518 C 106.218 372.518 110.174 367.243 110.174 360.798 Z M 110.174 227.984 C 110.174 221.539 106.218 216.266 101.385 216.266 L 72.088 216.266 C 67.254 216.266 63.299 221.539 63.299 227.984 L 63.299 267.048 C 63.299 273.493 67.254 278.768 72.088 278.768 L 101.385 278.768 C 106.218 278.768 110.174 273.493 110.174 267.048 Z M 110.174 134.236 C 110.174 127.789 106.218 122.516 101.385 122.516 L 72.088 122.516 C 67.254 122.516 63.299 127.789 63.299 134.236 L 63.299 173.298 C 63.299 179.743 67.254 185.016 72.088 185.016 L 101.385 185.016 C 106.218 185.016 110.174 179.743 110.174 173.298 Z M 391.424 321.736 C 391.424 315.291 387.468 310.018 382.635 310.018 L 353.338 310.018 C 348.504 310.018 344.549 315.291 344.549 321.736 L 344.549 360.798 C 344.549 367.243 348.504 372.518 353.338 372.518 L 382.635 372.518 C 387.468 372.518 391.424 367.243 391.424 360.798 Z M 391.424 227.984 C 391.424 221.539 387.468 216.266 382.635 216.266 L 353.338 216.266 C 348.504 216.266 344.549 221.539 344.549 227.984 L 344.549 267.048 C 344.549 273.493 348.504 278.768 353.338 278.768 L 382.635 278.768 C 387.468 278.768 391.424 273.493 391.424 267.048 Z M 391.424 134.236 C 391.424 127.789 387.468 122.516 382.635 122.516 L 353.338 122.516 C 348.504 122.516 344.549 127.789 344.549 134.236 L 344.549 173.298 C 344.549 179.743 348.504 185.016 353.338 185.016 L 382.635 185.016 C 387.468 185.016 391.424 179.743 391.424 173.298 Z M 298.648 282.962 C 298.374 271.648 294.016 273.6 283.033 273.297 C 266.764 272.848 260.983 273.915 260.983 273.915 L 227.749 336.872 L 194.685 274.535 C 194.685 274.535 191.009 273.93 173.287 274.23 C 161.297 274.433 158.197 272.357 157.401 283.224 C 156.998 288.74 156.394 356.613 156.206 378.371 C 163.056 378.896 172.704 379.295 183.863 379.571 L 184.471 319.88 L 217.73 380.024 C 224.403 380.05 231.162 380.044 237.827 380.006 L 271.026 315.535 L 271.026 379.511 C 282.124 379.224 291.716 378.821 298.534 378.305 C 298.256 356.898 298.759 287.539 298.648 282.962 Z M 298.692 118.977 C 298.418 107.663 294.06 109.615 283.077 109.312 C 266.808 108.863 261.027 109.93 261.027 109.93 L 227.793 172.887 L 194.729 110.55 C 194.729 110.55 191.053 109.945 173.331 110.245 C 161.341 110.448 158.241 108.372 157.445 119.239 C 157.043 124.745 156.44 192.394 156.251 214.273 C 163.108 214.793 172.754 215.194 183.908 215.476 L 184.515 155.895 L 217.726 215.952 C 224.427 215.984 231.215 215.984 237.907 215.95 L 271.07 151.55 L 271.07 215.479 C 282.173 215.198 291.766 214.797 298.578 214.276 C 298.3 192.818 298.803 123.551 298.692 118.977 Z" style=""/>
</svg>